<?xml version="1.0" encoding="UTF-8" standalone="no"?>
<svg
   xmlns:dc="http://purl.org/dc/elements/1.1/"
   xmlns:cc="http://creativecommons.org/ns#"
   xmlns:rdf="http://www.w3.org/1999/02/22-rdf-syntax-ns#"
   xmlns:svg="http://www.w3.org/2000/svg"
   xmlns="http://www.w3.org/2000/svg"
   xmlns:sodipodi="http://sodipodi.sourceforge.net/DTD/sodipodi-0.dtd"
   xmlns:inkscape="http://www.inkscape.org/namespaces/inkscape"
   width="300pt"
   height="300pt"
   version="1.1"
   viewBox="0 0 300 300"
   id="svg38"
   sodipodi:docname="La_Liga_Logo.svg"
   inkscape:version="1.0.2-2 (e86c870879, 2021-01-15)">
  <metadata
     id="metadata44">
    <rdf:RDF>
      <cc:Work
         rdf:about="">
        <dc:format>image/svg+xml</dc:format>
        <dc:type
           rdf:resource="http://purl.org/dc/dcmitype/StillImage" />
        <dc:title></dc:title>
      </cc:Work>
    </rdf:RDF>
  </metadata>
  <defs
     id="defs42" />
  <sodipodi:namedview
     pagecolor="#ffffff"
     bordercolor="#666666"
     borderopacity="1"
     objecttolerance="10"
     gridtolerance="10"
     guidetolerance="10"
     inkscape:pageopacity="0"
     inkscape:pageshadow="2"
     inkscape:window-width="1366"
     inkscape:window-height="705"
     id="namedview40"
     showgrid="false"
     inkscape:zoom="0.97711502"
     inkscape:cx="191.37217"
     inkscape:cy="177.02207"
     inkscape:window-x="-8"
     inkscape:window-y="-8"
     inkscape:window-maximized="1"
     inkscape:current-layer="svg38" />
  <path
     d="m 125.32194,91.515363 c 4.07735,-6.319421 10.31487,-11.096406 17.35182,-13.148759 -1.25139,0.900599 -2.29867,2.049816 -3.33866,3.191422 3.62053,-0.489622 7.38199,-0.0482 10.73767,1.491697 0.43252,3.336026 0.66578,6.702493 1.17363,10.025834 0.41552,-3.338562 0.7314,-6.689808 1.12747,-10.030907 3.2755,-1.481551 6.95191,-2.004152 10.48497,-1.481551 l 0.23813,0.197879 c 0.007,-0.05835 0.0219,-0.17251 0.0292,-0.228322 -1.09102,-1.090866 -2.10427,-2.278137 -3.36538,-3.163515 7.02723,2.057427 13.26475,6.819191 17.33724,13.136074 -1.1955,-0.958949 -2.56111,-1.631228 -3.91212,-2.306042 1.55513,3.417205 2.34241,7.263146 1.96578,11.045667 -2.94745,1.43081 -5.9435,2.76015 -8.85694,4.26707 3.18315,-0.59617 6.34201,-1.32933 9.51301,-1.97878 2.48091,2.8464 4.03118,6.47163 4.73585,10.22625 0.69738,-1.32934 1.38747,-2.67136 1.82242,-4.12247 0.24541,7.44581 -2.08728,14.94234 -6.47323,20.81527 0.39851,-1.41051 0.60991,-2.86416 0.79701,-4.31527 -2.64129,2.60286 -5.90949,4.55121 -9.4717,5.37316 -2.24522,-2.50392 -4.40296,-5.09663 -6.70164,-7.54728 1.54785,3.00877 3.20989,5.95157 4.80389,8.93243 -1.84671,3.32334 -4.65809,5.99977 -7.88255,7.8238 1.3826,0.26131 2.77493,0.49724 4.18426,0.54037 -6.67489,2.48363 -14.16381,2.47601 -20.83871,-0.008 1.41905,-0.0304 2.8211,-0.27145 4.21585,-0.53275 -3.22446,-1.82403 -6.03584,-4.50047 -7.88255,-7.82634 1.58915,-2.97832 3.26091,-5.91352 4.79417,-8.92228 -2.30354,2.45064 -4.4467,5.06366 -6.72107,7.54474 -3.54278,-0.84986 -6.81341,-2.76776 -9.43768,-5.38077 0.18224,1.4638 0.38878,2.92759 0.797,4.34571 -4.38838,-5.8856 -6.73322,-13.38468 -6.49023,-20.84318 0.45439,1.45872 1.14691,2.81089 1.84671,4.15291 0.66093,-3.77745 2.25251,-7.40522 4.72613,-10.2643 3.17344,0.64691 6.33229,1.38008 9.51544,1.97879 -2.911,-1.51453 -5.91434,-2.83627 -8.8618,-4.27215 -0.37177,-3.77491 0.40823,-7.618315 1.96578,-11.030446 -1.36073,0.669741 -2.72876,1.354704 -3.92912,2.313653 m 25.89531,3.072186 c -4.55847,3.462871 -9.12423,6.918137 -13.68756,10.373387 1.73737,5.60656 3.48932,11.2055 5.23398,16.80952 5.64706,-0.0127 11.29412,0.0203 16.94118,-0.0178 1.71307,-5.60909 3.50146,-11.19281 5.20967,-16.80443 -4.57548,-3.44004 -9.12665,-6.915596 -13.69727,-10.360709 z"
     fill="#ffffff"
     id="path2"
     style="stroke-width:0.248281" />
  <path
     d="m 142.63974,2.3026972 h 0.67065 c 0.37421,0.3399447 0.72654,0.7357013 0.76299,1.283672 2.46633,13.8565538 4.95211,27.7105718 7.41116,41.5696618 0.21626,0.697648 -0.16767,1.527215 -0.89663,1.621079 -5.008,0.938654 -9.88722,2.678969 -14.34606,5.248849 -7.4306,4.244236 -13.73858,10.637226 -17.93014,18.329111 -0.26486,0.487085 -0.61719,1.04774 -1.22709,1.027445 -0.81159,-0.167435 -1.47494,-0.723017 -2.18447,-1.126384 C 103.68136,63.449626 92.460135,56.650729 81.236485,49.851835 80.762657,49.580387 80.286399,49.093302 80.424902,48.471761 80.70191,47.591456 81.258354,46.848144 81.686014,46.04902 90.414171,30.916406 103.38005,18.52618 118.52797,10.679545 126.13352,6.7118314 134.28579,3.9313877 142.63974,2.3026972 Z"
     fill="#951b80"
     id="path4"
     style="stroke-width:0.248281" />
  <path
     d="m 165.22555,12.777562 c 12.37055,-0.337408 24.79943,2.052353 36.25878,6.92574 8.82049,3.754614 17.06996,8.97302 24.33046,15.411674 0.40579,0.370389 0.8529,0.705259 1.19551,1.146679 0.31346,0.535287 0.12878,1.217713 -0.28187,1.633765 -8.83992,10.642301 -17.67986,21.284601 -26.51493,31.929438 -0.27458,0.306964 -0.58561,0.664668 -1.02298,0.651983 -0.55645,0.03806 -0.94037,-0.446495 -1.33644,-0.771217 -10.01843,-9.110012 -23.93439,-13.318732 -37.06551,-11.195346 -0.49813,0.05074 -1.07401,0.251154 -1.50653,-0.111623 -0.35962,-0.218173 -0.46168,-0.669741 -0.51513,-1.068035 -1.89289,-13.3441 -3.78091,-26.690737 -5.67379,-40.034837 -0.0972,-0.768681 -0.26,-1.532288 -0.29159,-2.30858 -0.0194,-0.580951 0.46168,-1.062962 0.99625,-1.126384 3.78092,-0.626615 7.6007,-0.971634 11.42777,-1.083257 z"
     fill="#e40613"
     id="path6"
     style="stroke-width:0.248281" />
  <path
     d="m 65.413057,49.57785 c 0.456819,-0.28667 0.984105,-0.126846 1.414194,0.129382 11.957477,6.705029 23.931963,13.382153 35.887009,20.094794 0.76056,0.362777 0.75327,1.392759 0.29645,2.016836 -6.429485,12.210105 -7.374711,27.383309 -2.50279,40.357028 0.16281,0.54543 0.52729,1.1416 0.22841,1.70733 -0.28429,0.58095 -0.969522,0.69258 -1.489518,0.9412 -12.424015,4.97485 -24.835881,9.98017 -37.257466,14.9601 -0.522426,0.24861 -1.224663,0.20803 -1.552698,-0.34248 -0.410651,-0.82703 -0.663359,-1.73017 -0.988964,-2.59779 -6.614154,-18.82888 -7.13415,-39.890236 -1.550269,-59.071746 1.727651,-6.002308 4.050623,-11.814347 6.881442,-17.339718 0.172522,-0.309502 0.330464,-0.659594 0.6342,-0.854936 z"
     fill="#01509f"
     id="path8"
     style="stroke-width:0.248281" />
  <path
     d="m 224.08714,51.909262 c 0.46412,-0.296817 1.03757,-0.07358 1.39476,0.299354 10.47767,10.185659 18.49873,23.075653 23.25889,37.165602 3.16856,9.305353 4.85248,19.135852 5.13435,29.001862 v 5.03575 c -0.0608,0.8803 -0.0462,1.77329 -0.2114,2.64344 -0.21141,0.64184 -0.91365,0.79659 -1.4871,0.73571 -13.53447,-0.70019 -27.0738,-1.35472 -40.60827,-2.06758 -0.83345,0.0279 -1.27812,-0.8803 -1.12504,-1.65152 0.78243,-13.86162 -4.57062,-27.938895 -14.244,-37.46496 -0.38393,-0.405905 -0.86748,-0.778829 -1.02542,-1.349631 -0.0923,-0.535287 0.26729,-0.96656 0.5856,-1.331874 8.95657,-9.84064 17.90828,-19.688889 26.85998,-29.534603 0.47626,-0.504843 0.90149,-1.080719 1.46765,-1.48155 z"
     fill="#f28800"
     id="path10"
     style="stroke-width:0.248281" />
  <g
     fill="#1d1d1b"
     id="g30"
     transform="matrix(0.24298876,0,0,0.25369012,52.194469,2.3026972)">
    <path
       d="m 389.65,284.84 c 39.91,-5.35 81.81,7.73 111.48,34.97 26.13,23.46 42.8,57.13 45.42,92.17 2.96,35.25 -8.29,71.41 -30.72,98.76 -22.51,27.91 -56.12,46.54 -91.76,50.62 -39.05,4.86 -79.86,-7.86 -109.13,-34.18 -26.47,-23.28 -43.51,-56.95 -46.4,-92.1 -2.79,-31.06 5.32,-62.96 22.64,-88.9 21.94,-33.39 58.79,-56.48 98.47,-61.34 m -88.7,66.82 c 4.94,-3.78 10.57,-6.48 16.17,-9.12 -6.41,13.45 -9.62,28.6 -8.09,43.48 12.13,5.66 24.49,10.87 36.47,16.84 -13.1,-2.36 -26.1,-5.25 -39.16,-7.8 -10.18,11.27 -16.73,25.57 -19.45,40.46 -2.88,-5.29 -5.73,-10.62 -7.6,-16.37 -1,29.4 8.65,58.96 26.71,82.16 -1.68,-5.59 -2.53,-11.36 -3.28,-17.13 10.8,10.3 24.26,17.86 38.84,21.21 9.36,-9.78 18.18,-20.08 27.66,-29.74 -6.31,11.86 -13.19,23.43 -19.73,35.17 7.6,13.11 19.17,23.66 32.44,30.85 -5.74,1.03 -11.51,1.98 -17.35,2.1 27.47,9.79 58.29,9.82 85.76,0.03 -5.8,-0.17 -11.53,-1.1 -17.22,-2.13 13.27,-7.19 24.84,-17.74 32.44,-30.84 -6.56,-11.75 -13.4,-23.35 -19.77,-35.21 9.46,9.66 18.34,19.88 27.58,29.75 14.66,-3.24 28.11,-10.92 38.98,-21.18 -0.77,5.72 -1.64,11.45 -3.28,17.01 18.05,-23.15 27.65,-52.7 26.64,-82.05 -1.79,5.72 -4.63,11.01 -7.5,16.25 -2.9,-14.8 -9.28,-29.09 -19.49,-40.31 -13.05,2.56 -26.05,5.45 -39.15,7.8 11.99,-5.94 24.32,-11.18 36.45,-16.82 1.55,-14.91 -1.69,-30.07 -8.09,-43.54 5.56,2.66 11.18,5.31 16.1,9.09 -16.76,-24.9 -42.43,-43.67 -71.35,-51.78 5.19,3.49 9.36,8.17 13.85,12.47 -0.03,0.22 -0.09,0.67 -0.12,0.9 l -0.98,-0.78 c -14.54,-2.06 -29.67,0 -43.15,5.84 -1.63,13.17 -2.93,26.38 -4.64,39.54 -2.09,-13.1 -3.05,-26.37 -4.83,-39.52 -13.81,-6.07 -29.29,-7.81 -44.19,-5.88 4.28,-4.5 8.59,-9.03 13.74,-12.58 -28.96,8.09 -54.63,26.92 -71.41,51.83 z"
       id="path12" />
    <path
       d="m 407.52,363.77 c 18.81,13.58 37.54,27.28 56.37,40.84 -7.03,22.12 -14.39,44.13 -21.44,66.24 -23.24,0.15 -46.48,0.02 -69.72,0.07 -7.18,-22.09 -14.39,-44.16 -21.54,-66.26 18.78,-13.62 37.57,-27.24 56.33,-40.89 z"
       id="path14" />
    <path
       d="m 449.39,900.56 c 7.46,-1.65 15.6,-0.22 21.89,4.18 8.12,5.47 12.77,15.6 11.53,25.33 -1.08,11.25 -9.79,21.23 -20.77,23.85 -9.56,2.58 -20.46,-0.51 -26.94,-8.06 -7.87,-8.78 -9.05,-22.69 -2.87,-32.71 3.72,-6.28 10.04,-10.96 17.16,-12.59 z"
       id="path16" />
    <path
       d="m 2.75,928.38 c 16.21,-0.02 32.42,-0.01 48.63,0 -0.01,48.14 0.01,96.28 0,144.43 19.6,0.01 39.2,-0.01 58.8,0.01 0,14.18 0.05,28.37 -0.02,42.55 -35.8,0.01 -71.59,0.01 -107.38,0 C 2.71,1053.04 2.77,990.71 2.75,928.38 Z"
       id="path18" />
    <path
       d="m 305.06,928.36 c 16.21,0.02 32.42,0.01 48.63,0.01 0.01,48.15 0,96.29 0.01,144.44 19.6,0.06 39.21,-0.12 58.82,0.09 -0.04,14.14 0,28.28 -0.02,42.42 -35.81,-0.01 -71.63,-0.01 -107.44,-0.01 0,-62.31 -0.01,-124.63 0,-186.95 z"
       id="path20" />
    <path
       d="m 149.99,975.99 c 12.01,-8.95 27.01,-13.78 41.99,-13.42 8.96,0.08 17.99,2.09 25.83,6.5 5.77,3.14 10.86,7.34 15.75,11.68 -0.01,-5.09 0,-10.17 0,-15.25 14.94,-0.01 29.88,-0.01 44.82,0 -0.01,49.94 0.01,99.87 -0.01,149.81 -15.16,0.01 -30.32,0 -45.48,0 -0.02,-4.82 -0.03,-9.64 0,-14.45 -12.09,11.84 -29.01,18.54 -45.93,18.14 -15.68,-0.13 -31.61,-5.08 -43.62,-15.37 -11.82,-9.9 -19.32,-24.19 -22.66,-39.09 -2.75,-12.59 -3.41,-25.74 -1.16,-38.45 3.53,-19.67 14.31,-38.19 30.47,-50.1 m 40.55,29.61 c -7.39,1.71 -14.22,5.92 -18.86,11.95 -9.03,11.62 -9.57,28.28 -3.55,41.39 4.1,9.13 12.47,16.34 22.34,18.42 15.07,3.33 32.21,-3.46 39.79,-17.16 8.8,-15.49 5.36,-37.49 -9.04,-48.46 -8.56,-6.66 -20.23,-8.56 -30.68,-6.14 z"
       id="path22" />
    <path
       d="m 531.68,970.67 c 13.93,-8.23 31.12,-9.97 46.74,-6.32 11.24,2.59 20.88,9.59 28.7,17.86 -0.01,-5.57 -0.01,-11.15 0.01,-16.72 14.43,0.01 28.87,-0.01 43.31,0.01 0.01,38.14 0,76.28 0,114.43 -0.17,10.31 0.59,20.7 -1.05,30.93 -2.29,15.22 -9.95,29.7 -21.87,39.55 -13.6,11.46 -31.45,16.7 -48.99,17.59 h -9.13 c -14.96,-0.77 -30.07,-4.41 -42.84,-12.48 -14.07,-8.57 -24.22,-23.36 -26.41,-39.77 16.93,0 33.86,-0.02 50.79,0.01 2.19,3.13 4.45,6.36 7.69,8.51 5.35,3.65 12.16,3.78 18.41,3.64 9.12,-0.45 19.13,-3.45 24.55,-11.32 4.74,-6.83 3.53,-15.55 3.43,-23.37 -9.11,7.65 -19.89,13.49 -31.56,16.02 -13,2.7 -26.86,0.8 -38.79,-4.95 -16.09,-7.73 -27.79,-22.86 -33.19,-39.66 -6.02,-18.67 -5.57,-39.35 1.08,-57.79 5.35,-14.81 15.4,-28.2 29.12,-36.17 m 31.79,32.03 c -9.85,2.71 -17.21,11.23 -20.08,20.83 -4.03,13.1 -2.44,28.75 6.85,39.3 9.02,10.27 24.84,11.84 36.94,6.59 7.37,-3.18 13.34,-9.27 16.68,-16.53 4.72,-9.99 4.38,-21.9 0.38,-32.06 -3.03,-7.71 -9.31,-14.08 -17.1,-16.97 -7.51,-2.76 -15.94,-3.28 -23.67,-1.16 z"
       id="path24" />
    <path
       d="m 702.44,975.41 c 15.62,-11.36 36.21,-15.58 55.01,-11.11 10.68,2.59 19.78,9.2 27.8,16.47 -0.01,-5.1 -0.01,-10.19 0,-15.28 14.91,0 29.83,0 44.75,0.01 v 149.82 c -15.17,-0.01 -30.34,0 -45.5,-0.01 0,-4.81 -0.02,-9.61 0.01,-14.41 -5.35,5.14 -11.53,9.42 -18.32,12.44 -17.58,8 -38.47,7.25 -56.07,-0.26 -16.16,-6.91 -28.54,-21.13 -34.5,-37.52 -5.86,-16.08 -7.33,-33.8 -4.23,-50.62 3.75,-19.57 14.77,-37.88 31.05,-49.53 m 39.12,30.35 c -6.4,1.6 -12.33,5.07 -16.73,10 -10.11,11.22 -11.32,28.38 -5.59,41.95 3.55,8.62 10.69,15.84 19.63,18.75 14.92,4.88 32.88,-0.83 41.64,-14.03 10.34,-15.29 7.56,-38.43 -6.95,-50.15 -8.79,-7.22 -21.11,-9.25 -32,-6.52 z"
       id="path26" />
    <path
       d="m 432.62,965.5 c 15.09,-0.01 30.17,-0.01 45.26,0 v 149.81 c -15.08,0 -30.17,0.01 -45.25,0 -0.02,-49.94 0,-99.87 -0.01,-149.81 z"
       id="path28" />
  </g>
  <path
     d="m 90.42875,124.40629 c 0.772704,-0.47187 1.625595,0.11416 1.829705,0.94373 5.241268,12.97878 16.229215,23.2304 29.161085,27.2387 0.77999,0.12178 1.38989,0.91583 1.05943,1.7327 -4.02876,13.53184 -8.07938,27.05859 -12.12271,40.58282 -0.13851,0.83971 -1.02055,1.26083 -1.74466,0.90567 -10.227398,-3.25484 -19.881341,-8.45549 -28.356789,-15.262 -12.278222,-9.8102 -22.060949,-22.99954 -28.060342,-37.87593 v -0.58348 c 0.245419,-0.42622 0.612332,-0.75347 1.061861,-0.92599 12.397286,-5.56849 24.775133,-11.19026 37.17242,-16.75622 z"
     fill="#0090d7"
     id="path32"
     style="stroke-width:0.248281" />
  <path
     d="m 198.30604,129.75154 c 0.3013,-0.0583 0.60747,-0.0685 0.91849,-0.033 13.44701,1.11117 26.89643,2.18935 40.34343,3.29036 0.74597,-0.0304 1.35345,0.68496 1.20037,1.46126 -1.21009,18.35701 -7.85583,36.24471 -18.6907,50.74309 -5.18295,6.96634 -11.31599,13.15891 -18.15612,18.33418 -0.537,0.49724 -1.40205,0.31205 -1.7641,-0.30949 -7.72461,-10.97718 -15.44437,-21.95943 -23.16412,-32.94167 -0.43251,-0.68242 -1.06672,-1.27353 -1.25625,-2.08533 -0.11177,-0.74331 0.5613,-1.15682 1.04485,-1.53229 10.67935,-8.11047 17.6823,-21.22117 18.68827,-34.9661 0.0413,-0.71541 0.0219,-1.71242 0.83588,-1.96103 z"
     fill="#feed01"
     id="path34"
     style="stroke-width:0.248281" />
  <path
     d="m 164.80761,160.24001 c 0.60747,-0.3095 1.24653,0.14969 1.53326,0.70527 7.5448,11.74584 15.11876,23.47141 22.6587,35.21979 0.64392,0.83464 -0.0559,1.81897 -0.84074,2.16905 -17.14043,12.05537 -38.35092,17.56297 -58.90291,15.39646 -5.2364,-0.5429 -10.42907,-1.55259 -15.49296,-3.04175 -0.69009,-0.13699 -1.07887,-0.95387 -0.82373,-1.62108 3.60109,-13.67136 7.22891,-27.3351 10.83973,-41.0014 0.12878,-0.86254 1.057,-1.26591 1.7811,-0.90059 10.04759,3.00115 21.05255,2.24516 30.66519,-2.01938 3.02764,-1.29636 5.84873,-3.04681 8.58236,-4.90637 z"
     fill="#00963f"
     id="path36"
     style="stroke-width:0.248281" />
</svg>
