<?xml version="1.0" encoding="UTF-8" standalone="no"?>
<svg
   xmlns:ns="&amp;ns_sfw;"
   xmlns:dc="http://purl.org/dc/elements/1.1/"
   xmlns:cc="http://creativecommons.org/ns#"
   xmlns:rdf="http://www.w3.org/1999/02/22-rdf-syntax-ns#"
   xmlns:svg="http://www.w3.org/2000/svg"
   xmlns="http://www.w3.org/2000/svg"
   xmlns:sodipodi="http://sodipodi.sourceforge.net/DTD/sodipodi-0.dtd"
   xmlns:inkscape="http://www.inkscape.org/namespaces/inkscape"
   version="1.1"
   id="Livello_1"
   x="0px"
   y="0px"
   viewBox="0 0 299.99999 300"
   enable-background="new 0 0 343.174 500"
   xml:space="preserve"
   sodipodi:docname="Ligue_1_Logo.svg"
   width="300"
   height="300"
   inkscape:version="1.0.2-2 (e86c870879, 2021-01-15)"><defs
   id="defs23" /><sodipodi:namedview
   pagecolor="#ffffff"
   bordercolor="#666666"
   borderopacity="1"
   objecttolerance="10"
   gridtolerance="10"
   guidetolerance="10"
   inkscape:pageopacity="0"
   inkscape:pageshadow="2"
   inkscape:window-width="1366"
   inkscape:window-height="705"
   id="namedview21"
   showgrid="false"
   inkscape:zoom="1.076"
   inkscape:cx="171.58701"
   inkscape:cy="212.82528"
   inkscape:window-x="-8"
   inkscape:window-y="-8"
   inkscape:window-maximized="1"
   inkscape:current-layer="Livello_1" />
<metadata
   id="metadata2">
	<ns:sfw>
		<ns:slices />
		<ns:sliceSourceBounds
   bottomLeftOrigin="true"
   height="500"
   width="343.174"
   x="-283.511"
   y="-91.301" />
	</ns:sfw>
<rdf:RDF><cc:Work
     rdf:about=""><dc:format>image/svg+xml</dc:format><dc:type
       rdf:resource="http://purl.org/dc/dcmitype/StillImage" /><dc:title></dc:title></cc:Work></rdf:RDF></metadata>
<g
   id="g18"
   transform="matrix(0.612734,0,0,0.60223048,51.115242,0)">
	<rect
   fill="#ffffff"
   width="343.17401"
   height="500"
   id="rect4"
   x="0"
   y="0" />
	<rect
   x="3.6919999"
   y="3.698"
   fill="#091c3e"
   width="335.789"
   height="492.60999"
   id="rect6" />
	<path
   fill="#06c167"
   d="m 178.417,393.786 h 26.764 v 6.55 h -19.538 v 9.296 h 18.991 v 6.332 h -18.991 v 9.454 h 19.538 v 6.55 h -26.764 z m 100.676,38.911 c 8.208,0 12.835,-3.933 12.835,-9.325 0,-3.845 -2.74,-6.714 -8.472,-7.961 l -6.056,-1.235 c -3.516,-0.653 -4.621,-1.311 -4.621,-2.616 0,-1.699 1.693,-2.74 4.821,-2.74 3.381,0 5.891,0.912 6.544,4.039 h 7.103 c -0.388,-5.891 -4.627,-9.784 -13.217,-9.784 -7.426,0 -12.641,3.063 -12.641,9.002 0,4.11 2.869,6.779 9.06,8.084 l 6.767,1.564 c 2.675,0.523 3.387,1.246 3.387,2.352 0,1.764 -2.017,2.869 -5.28,2.869 -4.098,0 -6.444,-0.912 -7.349,-4.039 h -7.138 c 1.04,5.88 5.403,9.79 14.257,9.79 m -16.321,-0.729 h -7.685 c -4.815,0 -7.491,-2.999 -7.491,-6.785 v -14.999 h -5.403 v -6.391 h 5.427 v -8.02 h 7.144 v 8.02 h 8.008 v 6.391 h -8.008 v 13.17 c 0,1.499 1.041,2.222 2.669,2.222 h 5.339 z m -30.78,-28.146 v 2.54 c -2.516,-2.128 -5.703,-3.287 -8.996,-3.275 -8.173,-0.177 -14.94,6.315 -15.111,14.487 -0.171,8.178 6.315,14.946 14.487,15.116 0.212,0.006 0.417,0.006 0.623,0 3.293,0.018 6.485,-1.147 8.996,-3.269 v 2.546 h 7.12 v -28.163 z m -8.402,22.689 c -4.757,0.053 -8.655,-3.757 -8.708,-8.514 -0.059,-4.756 3.757,-8.655 8.508,-8.707 4.757,-0.053 8.655,3.757 8.714,8.514 v 0.1 c 0.041,4.704 -3.734,8.549 -8.437,8.596 h -0.088 z"
   id="path8" />
	<path
   fill="#ffffff"
   d="M 95.865,360.081 H 78.374 V 331.136 H 69.19 v 36.595 h 26.676 v -7.65 z m 15.799,-28.945 h -9.184 v 36.6 h 9.184 z m 77.616,21.19 c 0,4.057 -2.405,8.067 -8.255,8.067 -5.791,0 -8.143,-4.01 -8.143,-8.067 v -21.19 h -9.184 v 20.514 c 0,10.877 6.944,16.551 17.327,16.551 10.495,0 17.439,-5.674 17.439,-16.551 v -20.514 h -9.184 z m 28.316,0.352 h 14.311 v -7.226 h -14.311 v -6.615 h 17.58 v -7.702 h -26.764 v 36.595 h 27.275 v -7.65 h -18.092 v -7.402 z m 51.053,-21.542 -13.417,7.355 1.817,7.737 8.102,-4.28 v 25.782 h 8.802 v -36.595 h -5.304 z m -121.49,86.941 c 0,-8.284 -5.897,-14.475 -13.87,-14.475 -7.896,0.047 -14.252,6.491 -14.199,14.387 v 0.088 c 0,8.279 6.385,14.54 14.717,14.54 4.721,0.088 9.19,-2.128 11.983,-5.938 l -3.969,-2.905 c -1.846,2.581 -4.845,4.086 -8.014,4.039 -4.598,-0.018 -8.496,-3.398 -9.172,-7.949 h 22.536 z m -22.401,-2.546 c 0.97,-4.239 4.363,-7.109 8.467,-7.109 4.104,0 7.485,2.869 8.402,7.109 z m -49.042,1.823 c 0,6.068 -4.098,10.113 -9.378,10.113 -5.356,0 -9.284,-3.98 -9.284,-10.078 v -23.577 h -5.768 v 23.854 c 0,8.996 6.268,14.928 14.405,14.928 3.798,0.029 7.449,-1.505 10.095,-4.239 v 3.61 h 5.597 v -38.153 h -5.668 v 23.542 z m 26.682,-13.752 c -0.206,-0.006 -0.412,-0.006 -0.617,0 h -0.012 c -3.692,0 -7.226,1.476 -9.825,4.104 v -13.894 h -5.468 v 38.153 h 5.403 v -3.522 c 2.616,2.646 6.179,4.151 9.901,4.175 8.014,0.164 14.646,-6.191 14.817,-14.199 0.17,-8.015 -6.185,-14.653 -14.199,-14.817 m 8.554,14.54 c 0.006,5.274 -4.263,9.554 -9.537,9.56 h -0.041 v 0.029 c -5.315,0.024 -9.637,-4.263 -9.666,-9.578 -0.024,-5.309 4.263,-9.643 9.578,-9.66 5.309,-0.029 9.637,4.257 9.666,9.566 z m 45.385,-10.566 v -3.387 h -5.403 v 27.775 h 5.474 v -15.781 c 0,-4.304 2.54,-7.103 6.121,-7.103 h 2.287 v -5.092 h -1.964 c -2.664,-0.075 -5.157,1.301 -6.515,3.588 M 140.633,368.2 c 8.255,0 12.847,-2.916 14.699,-4.533 V 348.78 l -8.467,1.129 v 9.337 c -1.588,0.782 -3.498,1.147 -5.686,1.147 -6.503,0 -11.695,-4.475 -11.695,-10.983 0,-6.456 4.751,-10.519 11.636,-10.519 4.78,0 7.89,0.823 10.977,2.287 l 2.275,-7.949 c -2.669,-1.434 -7.508,-2.563 -13.523,-2.563 -12.465,0 -20.878,8.279 -20.878,18.744 10e-4,10.512 8.414,18.79 20.662,18.79"
   id="path10" />
	<path
   fill="#ffffff"
   d="m 203.922,178.834 c 0,17.774 -14.558,32.338 -32.338,32.338 -17.774,0 -32.332,-14.564 -32.332,-32.338 0,-17.78 14.558,-32.338 32.332,-32.338 17.78,0 32.338,14.558 32.338,32.338"
   id="path12" />
	<path
   fill="#cdfb0a"
   d="m 237.945,98.311 -24.818,39.735 c 11.318,16.216 20.661,31.526 28.98,48.095 -10.883,21.337 -23.113,42.104 -37.576,61.23 -19.938,1.693 -40.011,1.487 -59.978,0.453 l -24.982,39.993 c 38.253,3.604 72.877,4.474 108.455,-0.982 25.482,-31.226 45.179,-63.511 62.712,-100.453 -13.553,-31.85 -32.244,-60.843 -52.793,-88.071"
   id="path14" />
	<path
   fill="#cdfb0a"
   d="m 101.066,171.53 c 10.889,-21.314 23.024,-42.192 37.582,-61.23 19.932,-1.67 40.016,-1.488 59.984,-0.459 l 24.977,-39.993 c -35.942,-3.751 -70.343,-3.252 -108.455,0.982 -24.312,29.257 -46.872,65.669 -62.718,100.676 13.864,31.768 31.209,59.496 52.799,87.853 l 24.824,-39.734 c -11.231,-16.587 -20.62,-31.532 -28.993,-48.095"
   id="path16" />
</g>
</svg>
