<?xml version="1.0" encoding="UTF-8" standalone="no"?>
<svg
   xmlns:dc="http://purl.org/dc/elements/1.1/"
   xmlns:cc="http://creativecommons.org/ns#"
   xmlns:rdf="http://www.w3.org/1999/02/22-rdf-syntax-ns#"
   xmlns:svg="http://www.w3.org/2000/svg"
   xmlns="http://www.w3.org/2000/svg"
   xmlns:sodipodi="http://sodipodi.sourceforge.net/DTD/sodipodi-0.dtd"
   xmlns:inkscape="http://www.inkscape.org/namespaces/inkscape"
   version="1.1"
   id="svg2"
   inkscape:version="1.0.2-2 (e86c870879, 2021-01-15)"
   sodipodi:docname="Premier_League_Logo.svg"
   width="300"
   height="300"
   viewBox="0 0 299.99999 300.00001"
   overflow="visible"
   enable-background="new 0 0 204.695 86.213"
   xml:space="preserve"
   style="overflow:visible"><metadata
     id="metadata10"><rdf:RDF><cc:Work
         rdf:about=""><dc:format>image/svg+xml</dc:format><dc:type
           rdf:resource="http://purl.org/dc/dcmitype/StillImage" /><dc:title></dc:title></cc:Work></rdf:RDF></metadata><defs
     id="defs8" /><sodipodi:namedview
     pagecolor="#ffffff"
     bordercolor="#666666"
     borderopacity="1"
     objecttolerance="10"
     gridtolerance="10"
     guidetolerance="10"
     inkscape:pageopacity="0"
     inkscape:pageshadow="2"
     inkscape:window-width="1366"
     inkscape:window-height="705"
     id="namedview6"
     showgrid="false"
     inkscape:zoom="1.4069713"
     inkscape:cx="102.3475"
     inkscape:cy="156.82595"
     inkscape:window-x="-8"
     inkscape:window-y="-8"
     inkscape:window-maximized="1"
     inkscape:current-layer="svg2"
     fit-margin-top="0"
     fit-margin-left="0"
     fit-margin-right="0"
     fit-margin-bottom="0"
     inkscape:document-rotation="0" /><path
     id="path44_1_"
     inkscape:connector-curvature="0"
     d="m 229.81402,164.84562 0.82105,-3.27254 h 6.65436 v 24.64068 c 0,4.81215 -1.43208,8.18066 -4.81103,10.6827 -2.55792,1.82889 -6.04187,3.1752 -10.23749,3.1752 -5.73416,0 -9.82915,-1.82889 -13.10456,-4.81215 l 4.19853,-5.48668 c 2.0475,1.82889 4.81104,3.46585 8.39416,3.46585 5.63061,0 8.08644,-2.59939 8.08644,-6.44911 v -1.82889 c -2.2502,2.21414 -4.91166,3.07923 -7.88082,3.07923 -7.78165,0 -13.92414,-5.96789 -13.92414,-13.56999 0,-7.50888 6.34811,-13.28209 14.12831,-13.28209 3.17333,0.001 6.03895,1.44365 7.67519,3.65779 m -6.75353,2.79269 c -3.99145,0 -7.16769,2.88592 -7.16769,6.83161 0,3.75375 3.17624,6.73701 7.16769,6.73701 3.99146,0 7.16478,-2.98326 7.16478,-6.73701 0,-3.94569 -3.17332,-6.83161 -7.16478,-6.83161 m -43.3066,-42.83089 c -3.17478,0 -5.8377,1.73292 -6.4502,4.52424 h 12.69332 c -0.6125,-2.69535 -3.17041,-4.52424 -6.24312,-4.52424 m 0.40979,20.88556 c -8.49623,0 -14.74227,-5.48531 -14.74227,-13.47403 0,-7.21959 5.63062,-13.66733 14.53811,-13.66733 6.65436,0 13.51435,4.71481 13.51435,13.47402 0,0.67316 0,1.54099 -0.20416,2.50205 h -20.06664 c 0.71458,2.88729 3.48104,4.81489 6.85853,4.81489 3.07125,0 5.42645,-1.05977 7.37186,-2.986 l 4.60687,4.42691 c -2.9677,3.17656 -7.26832,4.90949 -11.87665,4.90949 m 85.07467,-20.88556 c -3.17333,0 -5.83333,1.73292 -6.4502,4.52424 h 12.69477 c -0.6125,-2.69535 -3.17333,-4.52424 -6.24457,-4.52424 m 0.41124,20.88556 c -8.49623,0 -14.74226,-5.48531 -14.74226,-13.47403 0,-7.21959 5.63061,-13.66733 14.5381,-13.66733 6.65436,0 13.51435,4.71481 13.51435,13.47402 0,0.67316 0,1.54099 -0.20416,2.50205 h -20.0681 c 0.71896,2.88729 3.4825,4.81489 6.85999,4.81489 3.06979,0 5.42499,-1.05977 7.37187,-2.986 l 4.60541,4.42691 c -2.96917,3.17656 -7.26979,4.90949 -11.8752,4.90949 m 19.14352,21.46274 c -3.17333,0 -5.83479,1.73292 -6.44874,4.52425 h 12.69477 c -0.61542,-2.69536 -3.17479,-4.52425 -6.24603,-4.52425 m 0.40979,20.88419 c -8.49916,0 -14.74227,-5.4853 -14.74227,-13.47402 0,-7.2196 5.63062,-13.66734 14.5381,-13.66734 6.65437,0 13.51581,4.71482 13.51581,13.47403 0,0.67315 0,1.54098 -0.20854,2.50204 h -20.06372 c 0.71604,2.88729 3.48104,4.81215 6.85854,4.81215 3.07124,0 5.42645,-1.05839 7.37186,-2.98326 l 4.60541,4.42691 c -2.96916,3.17794 -7.26687,4.90949 -11.87519,4.90949 M 159.27747,167.15572 c -3.17479,0 -5.83479,1.73292 -6.4502,4.52425 h 12.69477 c -0.6125,-2.69536 -3.17187,-4.52425 -6.24457,-4.52425 m 0.40979,20.88419 c -8.49624,0 -14.74227,-5.4853 -14.74227,-13.47402 0,-7.2196 5.62916,-13.66734 14.53518,-13.66734 6.65583,0 13.51582,4.71482 13.51582,13.47403 0,0.67315 0,1.54098 -0.20417,2.50204 h -20.06809 c 0.71749,2.88729 3.48395,4.81215 6.86144,4.81215 3.06979,0 5.42354,-1.05839 7.37187,-2.98326 l 4.60541,4.42691 c -2.96771,3.17794 -7.26687,4.90949 -11.87519,4.90949 m -42.07577,-0.67315 v -38.20931 h 8.08644 v 30.99108 h 17.60935 v 7.21823 z m 30.81453,-42.34694 v -25.79505 h 6.55229 l 0.82104,3.75376 c 1.22645,-2.40745 3.68228,-4.04166 6.96061,-4.04166 0.71604,0 1.43208,0.0946 2.14958,0.2879 v 6.83298 c -0.92312,-0.19193 -1.73833,-0.28927 -2.66145,-0.28927 -3.68521,0 -6.24458,2.11817 -6.24458,6.25579 v 12.99418 h -7.57749 z m 133.50147,0 v -25.79505 h 6.55082 l 0.81958,3.75376 c 1.22938,-2.40745 3.6852,-4.04166 6.96207,-4.04166 0.7175,0 1.43209,0.0946 2.15104,0.2879 v 6.83298 c -0.92312,-0.19193 -1.73979,-0.28927 -2.66291,-0.28927 -3.6852,0 -6.24311,2.11817 -6.24311,6.25579 v 12.99418 h -7.57749 z m -52.93013,-15.20831 c 0,-2.79133 -1.63771,-4.52425 -4.19854,-4.52425 -2.9677,0 -4.50332,1.73292 -4.50332,4.62159 v 15.1096 h -7.57603 v -15.20694 c 0,-2.79133 -1.63771,-4.52425 -4.19708,-4.52425 -2.96916,0 -4.50478,1.73292 -4.50478,4.62159 v 15.1096 h -7.57603 v -25.79368 h 6.65436 l 0.82104,3.36851 c 0,0 1.63771,-4.04166 6.75645,-4.04166 3.17624,0 5.83624,1.25034 7.67957,3.85109 l 0.20563,0.28791 0.20562,-0.28791 c 2.66291,-3.56181 5.93832,-3.85109 7.98582,-3.85109 5.83478,0 9.82769,4.139 9.82769,10.00955 v 16.45865 h -7.57603 v -15.20831 z m 15.25414,-14.04984 c -2.66145,0 -4.70895,-1.92623 -4.70895,-4.33231 0,-2.50204 2.0475,-4.4269 4.70895,-4.4269 2.66146,0 4.70895,1.92349 4.70895,4.4269 0,2.40471 -2.04749,4.33231 -4.70895,4.33231 m -3.88937,3.4631 h 7.57458 v 25.79231 h -7.57458 z m -49.65471,48.41354 c -4.09645,0 -7.16478,2.88592 -7.16478,6.83161 0,3.75375 3.06833,6.73701 7.16478,6.73701 3.99291,0 7.06415,-2.98326 7.06415,-6.73701 0,-3.94569 -3.07124,-6.83161 -7.06415,-6.83161 m -1.53563,20.4016 c -7.26832,0 -13.61497,-6.2558 -13.61497,-13.56999 0,-7.21823 6.34665,-13.28209 13.61497,-13.28209 4.09646,0 6.85854,1.34631 8.4977,3.75238 l 0.81958,-3.3685 h 6.65437 v 25.79368 h -6.65437 l -0.81958,-3.27391 c -1.63916,2.31285 -4.70895,3.94843 -8.4977,3.94843 m 65.21511,0 c -6.0404,0 -13.40935,-3.07923 -13.40935,-12.70353 v -13.76467 h 7.57311 v 13.28208 c 0,4.42691 2.1525,6.35177 5.83624,6.35177 3.3775,0 5.83624,-2.21277 5.83624,-6.35177 v -13.28208 h 7.57604 v 13.76467 c 0,9.6243 -7.47395,12.70353 -13.41228,12.70353 M 125.69793,124.90476 h 4.71041 c 4.09645,0 7.06416,-2.1168 7.06416,-5.96789 0,-3.85247 -2.96771,-5.87193 -7.06416,-5.87193 h -4.71041 z m -8.08644,20.11506 v -39.1731 h 13.20519 c 8.59977,0 15.04997,4.81215 15.04997,13.09015 0,8.37259 -6.34811,13.28208 -15.04997,13.28208 h -5.11875 v 12.80087 z"
     style="fill:#3d195b;fill-opacity:1;stroke-width:1.41398" /><path
     id="path56"
     inkscape:connector-curvature="0"
     d="m 88.64419,140.08105 c -2.748298,2.11738 -5.078274,3.29749 -5.078274,3.29749 l 0.03179,6.71152 c 1.964576,2.01053 3.902684,3.67627 5.353621,6.71151 2.753592,-4.54556 2.224057,-11.22797 -0.307125,-16.72052 m -2.234659,21.97028 c 0,0 -0.561297,-2.76814 -2.949518,-5.35173 l -5.448938,0.12147 c 0,0 -7.34468,5.78882 -11.824571,5.92479 0,0 2.467642,4.21049 3.717359,6.41044 2.462348,-0.49536 6.79925,-2.27766 8.546724,-4.14251 0,0 1.154401,3.41405 0.937284,7.44484 2.451761,-1.3015 5.830204,-4.83695 7.02166,-10.40723 m -7.02166,-12.12154 -0.01021,-6.68724 c 0,0 -3.256658,-0.9567 -6.730417,-3.42861 -6.97931,0.96643 -15.430733,7.40598 -15.430733,7.40598 0,0 2.854217,4.9681 5.978487,10.32955 5.491302,0.70417 13.582634,-5.6577 16.19325,-7.61968 m 18.613238,27.84651 -4.490478,-4.56014 c -1.281479,12.32551 -7.863628,22.79102 -19.952959,30.09017 l -1.848085,-6.6484 c -10.262436,6.79894 -27.874847,11.20855 -43.003734,3.36063 1.879847,-8.79006 3.5479,-17.69667 -0.03179,-28.3613 C 20.297169,183.55548 12.883641,188.2176 12.883641,188.2176 7.2228952,179.5004 7.7312403,162.01256 9.420469,156.86478 L 0,159.54065 c 0,-5.87623 4.6122638,-18.34257 11.295037,-25.34548 l -5.8831703,-0.86443 h -0.00583 c 3.9980115,-7.4934 9.9658963,-13.95241 17.2682123,-18.80393 l 0.01021,-0.005 c -2.192282,3.17609 -2.224059,11.01429 4.199233,13.99612 -2.727108,-4.38531 -3.055422,-9.80505 -0.206514,-12.61204 2.848908,-2.83128 7.641218,-1.85999 10.701948,0.33509 -0.9108,-2.44761 -3.579678,-5.52656 -7.577678,-5.73539 h -0.0058 c 7.551195,-3.56458 16.124417,-5.57027 25.195382,-5.57027 1.694523,0 3.383751,0.068 5.035909,0.20397 v 0 c 2.637101,0.97127 6.508007,4.38046 8.313742,6.5027 0,0 0.127021,-2.50104 -1.387398,-5.52171 9.822925,2.19508 14.50933,5.86166 16.473906,7.62938 0.402456,3.89483 1.673348,6.23075 3.351974,9.93131 -3.182516,-3.26836 -11.178531,-8.54238 -14.9965,-9.80504 0,0 -0.312418,3.37519 -1.625674,4.99722 -7.604162,-5.03121 -11.337402,-6.29874 -11.337402,-6.29874 -8.345504,1.09754 -13.715021,4.05023 -16.632762,6.37159 l 2.541769,1.98624 c -5.030601,1.41808 -8.297846,5.38088 -8.297846,5.38088 0.03704,0.0729 4.495773,0.65562 4.495773,0.65562 0,0 -0.455408,4.80296 6.100272,7.81393 5.618395,2.57874 13.693831,-0.62162 21.297992,2.17565 -4.998824,-5.29345 -8.456716,-7.65852 -8.456716,-7.65852 0,0 -1.985766,-0.37878 -3.383737,-0.36909 -1.747474,0.01 -4.352797,0.32539 -7.206999,-0.69446 -1.366208,-0.4905 -2.960121,-1.35492 -4.209823,-2.07367 0,0 3.51083,-3.30721 8.642041,-4.03566 0,0 4.62816,1.19467 8.292567,3.68114 2.435865,-2.17565 4.977648,-2.10767 4.977648,-2.10767 0,0 -2.520608,2.15623 -1.758062,4.76897 3.659099,2.99154 7.63063,7.27486 7.63063,7.27486 4.045659,-2.02997 12.841277,-1.56376 14.646997,0.35938 -2.287597,-2.72442 -5.586619,-4.99722 -8.13899,-6.93977 -0.312418,-1.01985 -3.097787,-4.57471 -3.569076,-4.90495 0,0 2.647688,0.74788 5.01472,2.6953 0.677803,-0.88873 1.948695,-1.79202 3.680288,-2.19023 1.779237,1.36949 2.096963,3.4723 2.049305,3.82197 -0.799603,0.87901 -1.593912,1.23838 -1.593912,1.23838 l 4.289258,4.25904 0.428924,-3.05467 c 9.881138,12.94227 15.266532,27.91936 8.340178,46.74757 M 19.967397,95.868508 c 5.697831,2.394199 9.356929,5.414872 10.024145,5.876232 -0.301831,-1.35008 -1.424454,-7.847924 -2.070495,-11.88358 3.320197,2.112528 11.024969,7.017478 13.561458,8.610371 1.032601,-2.918687 4.612264,-12.451773 4.612264,-12.451773 0,0 6.470951,9.605932 7.577678,11.164832 1.350327,-1.296655 9.081568,-9.188281 11.083229,-11.184257 0.333608,4.54072 0.789001,11.03371 0.905507,12.009843 0.38656,-0.480783 3.346681,-4.288189 8.308433,-7.7945 -2.149915,3.885108 -3.177222,9.246558 -3.632615,13.554174 -4.882332,-1.24809 -10.034733,-1.91827 -15.34071,-1.91827 -10.193588,0 -19.76762,2.45733 -28.04429,6.77465 -1.50389,-4.16192 -3.860334,-9.338825 -6.984604,-12.757722"
     style="fill:#3d195b;stroke-width:1.41398" /></svg>
