<?xml version="1.0" encoding="UTF-8" standalone="no"?>
<svg
   xmlns:dc="http://purl.org/dc/elements/1.1/"
   xmlns:cc="http://creativecommons.org/ns#"
   xmlns:rdf="http://www.w3.org/1999/02/22-rdf-syntax-ns#"
   xmlns:svg="http://www.w3.org/2000/svg"
   xmlns="http://www.w3.org/2000/svg"
   xmlns:xlink="http://www.w3.org/1999/xlink"
   xmlns:sodipodi="http://sodipodi.sourceforge.net/DTD/sodipodi-0.dtd"
   xmlns:inkscape="http://www.inkscape.org/namespaces/inkscape"
   height="300"
   viewBox="0 0 300 299.99999"
   width="300"
   version="1.1"
   id="svg53"
   sodipodi:docname="Serie_A_Logo.svg"
   inkscape:version="1.0.2-2 (e86c870879, 2021-01-15)">
  <metadata
     id="metadata59">
    <rdf:RDF>
      <cc:Work
         rdf:about="">
        <dc:format>image/svg+xml</dc:format>
        <dc:type
           rdf:resource="http://purl.org/dc/dcmitype/StillImage" />
        <dc:title></dc:title>
      </cc:Work>
    </rdf:RDF>
  </metadata>
  <defs
     id="defs57" />
  <sodipodi:namedview
     pagecolor="#ffffff"
     bordercolor="#666666"
     borderopacity="1"
     objecttolerance="10"
     gridtolerance="10"
     guidetolerance="10"
     inkscape:pageopacity="0"
     inkscape:pageshadow="2"
     inkscape:window-width="1366"
     inkscape:window-height="705"
     id="namedview55"
     showgrid="false"
     inkscape:zoom="0.92232341"
     inkscape:cx="53.999352"
     inkscape:cy="243.24858"
     inkscape:window-x="-8"
     inkscape:window-y="-8"
     inkscape:window-maximized="1"
     inkscape:current-layer="svg53" />
  <linearGradient
     id="a">
    <stop
       offset="0"
       stop-color="#147ad1"
       id="stop2" />
    <stop
       offset="1"
       stop-color="#002d71"
       id="stop4" />
  </linearGradient>
  <linearGradient
     id="b"
     gradientUnits="userSpaceOnUse"
     x1="371.89429"
     x2="1334.9531"
     xlink:href="#a"
     y1="2114.7334"
     y2="2670.7556" />
  <linearGradient
     id="c"
     gradientUnits="userSpaceOnUse"
     x1="2095.9402"
     x2="1191.2711"
     xlink:href="#a"
     y1="2087.896"
     y2="2721.3523" />
  <linearGradient
     id="d"
     gradientUnits="userSpaceOnUse"
     x1="1055.9733"
     x2="1614.481"
     xlink:href="#a"
     y1="2523.6011"
     y2="2201.1465" />
  <linearGradient
     id="e"
     gradientUnits="userSpaceOnUse"
     x1="1431.259"
     x2="950.29858"
     xlink:href="#a"
     y1="1969.1974"
     y2="1632.4252" />
  <linearGradient
     id="f"
     gradientUnits="userSpaceOnUse"
     x1="1149.2131"
     x2="1842.0645"
     xlink:href="#a"
     y1="1610.6727"
     y2="2303.5242" />
  <linearGradient
     id="g"
     gradientUnits="userSpaceOnUse"
     x1="1636.4025"
     x2="1115.7302"
     xlink:href="#a"
     y1="2248.8899"
     y2="2613.4685" />
  <g
     transform="matrix(0.07257406,0,0,0.06692998,70.305758,1.0842184)"
     id="g51">
    <path
       d="M 1959.8,4434.2 H 537.1 C 240.4,4434.2 0,4193.8 0,3897.2 V 537.1 C 0,240.4 240.4,0 537.1,0 h 1422.7 c 296.6,0 537.1,240.4 537.1,537.1 v 3360.1 c -0.1,296.6 -240.5,537 -537.1,537 z"
       fill="#ffffff"
       id="path13" />
    <path
       d="m 0,3484.3 v 412.9 c 0,296.6 240.4,537.1 537.1,537.1 h 1422.7 c 296.6,0 537.1,-240.4 537.1,-537.1 v -412.9 z"
       fill="#024494"
       id="path15" />
    <path
       d="m 2155.2,3681.6 h -33.5 c -42.9,0 -45.7,4.7 -49,12.3 l -66.4,159.3 c -22.1,52.8 -44.8,109.8 -53.7,139 -8,-29.7 -22.6,-68.8 -53.7,-141.8 L 1832.5,3694 c -4.2,-9.4 -20.7,-12.3 -57,-12.3 h -37.7 c -36.8,0 -44.3,3.3 -44.3,10.8 v 480.2 c 0,9 7.5,10.8 45.7,10.8 h 20.7 c 37.7,0 48.1,-1.9 48.1,-10.8 V 3888 h 2.8 c 0,0 3.3,13.2 9,25.4 l 76.3,178.6 c 3.3,8 7.5,11.3 42.9,11.3 h 22.6 c 36.3,0 38.6,-2.8 41.9,-11.3 l 69.7,-172 c 6.6,-16 11.3,-32 11.3,-32 h 2.8 v 285 c 0,9 7.1,10.8 46.6,10.8 h 20.3 c 36.8,0 47.6,-1.9 47.6,-10.8 v -480.6 c 1,-7.5 -9.8,-10.8 -46.6,-10.8"
       fill="#ff1f11"
       id="path17" />
    <path
       d="m 1600.2,3692.4 c 0,-7.5 -10.4,-10.8 -47.6,-10.8 h -21.2 c -38.6,0 -45.7,3.3 -45.7,10.8 v 480.2 c 0,9 6.6,10.8 45.7,10.8 h 21.7 c 36.8,0 47.6,-1.9 47.6,-10.8 z"
       fill="#ffffff"
       id="path19" />
    <path
       d="m 1396.1,3681.6 c 9.9,0 12.3,1.4 12.3,36.8 v 33 c 0,33.9 -2.8,38.2 -12.3,38.2 h -113.6 v 383.1 c 0,9 -10.8,10.8 -49,10.8 h -20.3 c -38.6,0 -45.7,-1.9 -45.7,-10.8 v -383.1 h -113.6 c -9.4,0 -12.3,-2.8 -12.3,-38.2 v -33 c 0,-36.8 1.9,-36.8 11.8,-36.8 z"
       fill="#00be1b"
       id="path21" />
    <path
       d="M 548,4076 H 336.9 c -8,0 -15.1,3.3 -20.3,8.5 -5.2,5.2 -8.5,12.3 -8.5,20.3 v 49.5 c 0,8 3.3,15.1 8.5,20.3 5.2,5.2 12.3,8.5 20.3,8.5 H 548 Z m 352,8.5 c -5.2,-5.2 -12.3,-8.5 -20.3,-8.5 H 668.6 v 107 h 211.1 c 8,0 15.5,-3.3 20.3,-8.5 5.2,-5.2 8.5,-12.3 8.5,-20.3 v -49.5 c 0,-8 -3.3,-15.1 -8.5,-20.2 m 0,-197 c -5.2,-5.2 -12.3,-8.5 -20.3,-8.5 H 668.6 v 107.4 h 211.1 c 8,0 15.5,-3.3 20.3,-8.5 5.2,-5.2 8.5,-12.3 8.5,-20.3 v -49.5 c 0,-8.4 -3.3,-15.4 -8.5,-20.6 M 548,3879 H 336.9 c -8,0 -15.1,3.3 -20.3,8.5 -5.2,5.2 -8.5,12.3 -8.5,20.3 v 49.5 c 0,8 3.3,15.1 8.5,20.3 5.2,5.2 12.3,8.5 20.3,8.5 H 548 Z m 331.7,-90 H 336.9 c -8,0 -15.1,-3.3 -20.3,-8.5 -5.2,-5.2 -8.5,-12.3 -8.5,-20.3 v -49.5 c 0,-8 3.3,-15.1 8.5,-20.3 5.2,-5.2 12.3,-8.5 20.3,-8.5 h 542.8 c 8,0 15.5,3.3 20.3,8.5 5.2,5.2 8.5,12.3 8.5,20.3 v 49.5 c 0,8 -3.3,15.1 -8.5,20.3 -5.2,5.2 -12.3,8.5 -20.3,8.5"
       fill="#e40d2c"
       id="path23" />
    <polygon
       clip-rule="evenodd"
       fill="url(#b)"
       fill-rule="evenodd"
       points="882,2222.3 309.8,2222.3 1254,2811 "
       id="polygon25"
       style="fill:url(#b)" />
    <polygon
       clip-rule="evenodd"
       fill="url(#c)"
       fill-rule="evenodd"
       points="2190.1,2222.3 1617.8,2222.3 1254,2811 "
       id="polygon27"
       style="fill:url(#c)" />
    <polygon
       clip-rule="evenodd"
       fill="url(#d)"
       fill-rule="evenodd"
       points="1254,2222.3 882,2222.3 1254,2811 "
       id="polygon29"
       style="fill:url(#d)" />
    <polygon
       clip-rule="evenodd"
       fill="url(#e)"
       fill-rule="evenodd"
       points="1254,2222.3 1249.9,1204.5 882,2222.3 "
       id="polygon31"
       style="fill:url(#e)" />
    <polygon
       clip-rule="evenodd"
       fill="url(#f)"
       fill-rule="evenodd"
       points="1617.8,2222.3 1249.9,1204.5 1254,2222.3 "
       id="polygon33"
       style="fill:url(#f)" />
    <polygon
       clip-rule="evenodd"
       fill="url(#g)"
       fill-rule="evenodd"
       points="1617.8,2222.3 1254,2222.3 1254,2811 "
       id="polygon35"
       style="fill:url(#g)" />
    <path
       d="m 2190.1,2222.3 v 0 L 1442,481 c -171.7,0 -212.6,0 -388.3,0 L 309.8,2222.3 H 882 l 367.9,-1017.8 171.7,474.2 h -171.7 l -98.1,294.3 h 376.1 l 89.9,249.3 z"
       fill="#008fd7"
       id="path37" />
    <path
       d="m 427.5,3320.9 c -28.2,0 -55.5,-4.9 -81.9,-14.6 -26.4,-9.7 -47.1,-21.9 -62.1,-36.6 -2.9,-2.9 -3.1,-6 -0.6,-9.3 l 41.8,-47.8 c 2.2,-2.9 4.9,-3.1 8.2,-0.5 32.2,25.7 64.9,38.5 97.8,38.5 19,0 34,-4 44.8,-12.1 10.8,-8.1 16.2,-18.9 16.2,-32.4 0,-11.7 -4.3,-20.9 -12.9,-27.5 -8.6,-6.6 -23.6,-11.4 -44.8,-14.3 l -19.8,-2.7 c -78.8,-11 -118.2,-48.4 -118.2,-112.1 0,-34.4 12,-62.1 36,-83 24,-20.9 56.1,-31.3 96.5,-31.3 50.9,0 93.3,13 127,39 3.3,2.2 3.7,4.9 1.1,8.2 l -33.5,50 c -2.2,2.9 -4.8,3.5 -7.7,1.6 -29.3,-19 -58.3,-28.6 -86.8,-28.6 -16.1,0 -28.5,3.8 -37.1,11.3 -8.6,7.5 -12.9,17.3 -12.9,29.4 0,11 4.5,19.9 13.5,26.7 9,6.8 23.9,11.6 44.8,14.6 l 19.8,2.7 c 78.4,10.6 117.6,48.4 117.6,113.2 0,35.2 -12.7,63.6 -38.2,85.2 -25.5,21.5 -61.7,32.4 -108.6,32.4 z"
       fill="#002d71"
       id="path39" />
    <path
       d="m 629.8,3309.3 v -362.8 c 0,-3.7 1.8,-5.5 5.5,-5.5 h 239.6 c 3.7,0 5.5,1.8 5.5,5.5 v 58.8 c 0,3.7 -1.8,5.5 -5.5,5.5 h -161 c -2.2,0 -3.3,1.1 -3.3,3.3 v 74.2 c 0,2.2 1.1,3.3 3.3,3.3 H 848 c 3.7,0 5.5,1.8 5.5,5.5 v 58.3 c 0,3.7 -1.8,5.5 -5.5,5.5 H 713.9 c -2.2,0 -3.3,1.1 -3.3,3.3 v 77.5 c 0,2.2 1.1,3.3 3.3,3.3 H 875 c 3.7,0 5.5,1.8 5.5,5.5 v 58.8 c 0,3.7 -1.8,5.5 -5.5,5.5 H 635.3 c -3.7,0 -5.5,-1.8 -5.5,-5.5 z"
       fill="#002d71"
       id="path41" />
    <path
       d="m 1234,3314.8 h -78.1 c -4,0 -6.8,-1.8 -8.2,-5.5 l -64.3,-136.9 h -50 c -2.2,0 -3.3,1.1 -3.3,3.3 v 133.6 c 0,3.7 -1.8,5.5 -5.5,5.5 h -69.8 c -3.7,0 -5.5,-1.8 -5.5,-5.5 v -362.8 c 0,-3.7 1.8,-5.5 5.5,-5.5 h 149 c 38.1,0 68.8,10.7 92.1,32.2 23.3,21.4 34.9,49.4 34.9,83.8 0,23.8 -5.9,44.8 -17.6,62.9 -11.7,18.1 -28,31.8 -48.9,41 l 73.7,147.3 c 0.7,1.5 0.7,2.9 0,4.4 -0.9,1.5 -2.2,2.2 -4,2.2 z m -134.7,-211.1 c 15.4,0 27.7,-4.2 36.8,-12.6 9.2,-8.4 13.7,-19.8 13.7,-34.1 0,-13.9 -4.6,-25.1 -13.7,-33.5 -9.2,-8.4 -21.4,-12.6 -36.8,-12.6 h -66 c -2.2,0 -3.3,1.1 -3.3,3.3 v 86.3 c 0,2.2 1.1,3.3 3.3,3.3 h 66 z"
       fill="#002d71"
       id="path43" />
    <path
       d="m 1295.3,3309.3 v -362.8 c 0,-3.7 1.8,-5.5 5.5,-5.5 h 69.8 c 3.7,0 5.5,1.8 5.5,5.5 v 362.8 c 0,3.7 -1.8,5.5 -5.5,5.5 h -69.8 c -3.7,0 -5.5,-1.8 -5.5,-5.5 z"
       fill="#002d71"
       id="path45" />
    <path
       d="m 1456.2,3309.3 v -362.8 c 0,-3.7 1.8,-5.5 5.5,-5.5 h 239.6 c 3.7,0 5.5,1.8 5.5,5.5 v 58.8 c 0,3.7 -1.8,5.5 -5.5,5.5 h -161.1 c -2.2,0 -3.3,1.1 -3.3,3.3 v 74.2 c 0,2.2 1.1,3.3 3.3,3.3 h 134.1 c 3.7,0 5.5,1.8 5.5,5.5 v 58.3 c 0,3.7 -1.8,5.5 -5.5,5.5 h -134.1 c -2.2,0 -3.3,1.1 -3.3,3.3 v 77.5 c 0,2.2 1.1,3.3 3.3,3.3 h 161.1 c 3.7,0 5.5,1.8 5.5,5.5 v 58.8 c 0,3.7 -1.8,5.5 -5.5,5.5 h -239.6 c -3.6,0 -5.5,-1.8 -5.5,-5.5 z"
       fill="#002d71"
       id="path47" />
    <path
       d="M 1879.4,3309.3 2008,2946.5 c 1.1,-3.7 3.5,-5.5 7.1,-5.5 h 69.3 c 3.7,0 6,1.8 7.1,5.5 l 126.4,362.8 c 1.1,3.7 -0.2,5.5 -3.8,5.5 h -71.5 c -3.7,0 -6,-1.8 -7.1,-5.5 l -21.4,-65.4 h -130.8 l -20.9,65.4 c -1.1,3.7 -3.5,5.5 -7.1,5.5 h -72 c -3.8,0 -5,-1.8 -3.9,-5.5 z m 126.4,-134.1 h 86.3 l -42.3,-130.8 h -1.7 z"
       fill="#002d71"
       id="path49" />
  </g>
</svg>
